<svg width="20" height="16" viewBox="0 0 20 16" fill="none" xmlns="http://www.w3.org/2000/svg">
<path d="M16.6648 15.08H3.33513C2.05081 15.08 1 14.0039 1 12.6663V3.41371C1 2.08617 2.04108 1 3.33513 1H16.6648C17.9492 1 19 2.07611 19 3.41371V12.6663C19 14.0039 17.9589 15.08 16.6648 15.08Z" fill="white" fill-opacity="0.67" stroke="#141718" stroke-width="1.5" stroke-linecap="round" stroke-linejoin="round"/>
<path d="M17.9976 1.77417L11.3133 8.63314C10.5641 9.40754 9.43542 9.40754 8.6765 8.63314L1.99219 1.77417" fill="white" fill-opacity="0.67"/>
<path d="M17.9976 1.77417L11.3133 8.63314C10.5641 9.40754 9.43542 9.40754 8.6765 8.63314L1.99219 1.77417" stroke="#141718" stroke-width="1.5" stroke-linecap="round" stroke-linejoin="round"/>
<path d="M12.0723 7.95935L17.9977 13.9031" stroke="#141718" stroke-width="1.5" stroke-linecap="round" stroke-linejoin="round"/>
<path d="M2.00195 13.9034L7.99546 8.04004" stroke="#141718" stroke-width="1.5" stroke-linecap="round" stroke-linejoin="round"/>
</svg>
