<svg width="19" height="22" viewBox="0 0 19 22" fill="none" xmlns="http://www.w3.org/2000/svg">
<path d="M1 16.979V12.8228C1 11.0103 2.46875 9.53113 4.29167 9.53113H14.8854C16.6979 9.53113 18.1771 10.9999 18.1771 12.8228V16.979C18.1771 18.7915 16.7083 20.2707 14.8854 20.2707H4.29167C2.46875 20.2707 1 18.802 1 16.979Z" fill="white" fill-opacity="0.67" stroke="#141718" stroke-width="1.5625" stroke-linecap="round" stroke-linejoin="round"/>
<path d="M4.21875 9.54167V6.36459C4.21875 3.40625 6.62499 1 9.58333 1C12.5417 1 14.9479 3.40625 14.9479 6.36459V9.54167H4.21875Z" stroke="#141718" stroke-width="1.5625" stroke-linecap="round" stroke-linejoin="round"/>
<path d="M9.5835 17.0521V14.3646" stroke="#141718" stroke-width="1.5625" stroke-linecap="round" stroke-linejoin="round"/>
<path d="M9.58317 14.9063C10.1757 14.9063 10.6561 14.426 10.6561 13.8334C10.6561 13.2409 10.1757 12.7605 9.58317 12.7605C8.99061 12.7605 8.51025 13.2409 8.51025 13.8334C8.51025 14.426 8.99061 14.9063 9.58317 14.9063Z" fill="white" fill-opacity="0.67" stroke="#141718" stroke-width="1.5625" stroke-linecap="round" stroke-linejoin="round"/>
</svg>
