<svg width="36" height="68" viewBox="0 0 36 68" fill="none" xmlns="http://www.w3.org/2000/svg">
<path d="M5.47723 4.14313C5.53738 4.14313 5.59754 4.14313 5.65988 4.14258C5.86113 4.14258 6.06184 4.14313 6.26309 4.14367C6.40746 4.14367 6.55238 4.14367 6.69676 4.14367C7.00738 4.14367 7.31801 4.14422 7.62863 4.14477C8.07816 4.14586 8.52715 4.14586 8.97613 4.14586C9.70512 4.14641 10.4341 4.14695 11.1631 4.14805C11.8707 4.14914 12.5789 4.14969 13.2866 4.15023C13.3304 4.15023 13.3741 4.15023 13.4189 4.15023C13.6382 4.15023 13.857 4.15078 14.0763 4.15078C15.8925 4.15188 17.7081 4.15406 19.5243 4.15625C19.3706 4.35367 19.2202 4.50789 19.0222 4.66211C18.7652 4.86719 18.535 5.08484 18.3091 5.32383C18.2118 5.41406 18.2118 5.41406 18.1024 5.41406C18.1024 5.45016 18.1024 5.48625 18.1024 5.52344C18.0067 5.63117 17.9246 5.68148 17.7808 5.70281C17.6474 5.70883 17.5145 5.70938 17.3805 5.70883C17.3291 5.70883 17.2777 5.70938 17.2246 5.70938C17.0513 5.71047 16.8785 5.70992 16.7057 5.70938C16.5815 5.70992 16.4579 5.70992 16.3338 5.71047C16.0669 5.71156 15.8 5.71156 15.5326 5.71156C15.111 5.71156 14.6888 5.71266 14.2666 5.71375C13.6749 5.71539 13.0826 5.71648 12.4909 5.71703C12.4537 5.71703 12.416 5.71758 12.3771 5.71758C12.2251 5.71758 12.0731 5.71758 11.9205 5.71812C11.5021 5.71812 11.0838 5.71922 10.6654 5.71977C10.6277 5.71977 10.5905 5.71977 10.5517 5.71977C9.9266 5.72086 9.30152 5.72195 8.67699 5.72414C8.25699 5.72523 7.83754 5.72523 7.41809 5.72578C7.15668 5.72578 6.89582 5.72633 6.63441 5.72687C6.51355 5.72742 6.39215 5.72742 6.27129 5.72742C6.10559 5.72687 5.94043 5.72742 5.77527 5.72797C5.70309 5.72797 5.70309 5.72797 5.6298 5.72742C5.35473 5.72906 5.12941 5.76352 4.86801 5.85156C4.8177 5.86633 4.76684 5.88109 4.71434 5.89586C4.55574 5.98227 4.53605 6.06539 4.4852 6.23438C4.46715 6.27047 4.4491 6.30656 4.43051 6.34375C4.42559 6.43234 4.4234 6.52094 4.4234 6.60953C4.4234 6.66586 4.42285 6.72219 4.42285 6.78016C4.42285 6.84305 4.42285 6.90539 4.42285 6.96937C4.42285 7.03555 4.42285 7.10172 4.4223 7.16953C4.4223 7.35328 4.42176 7.53703 4.42176 7.72078C4.42176 7.91875 4.42121 8.11672 4.42121 8.31523C4.42012 8.74836 4.42012 9.18148 4.41957 9.61461C4.41957 9.88477 4.41957 10.1555 4.41902 10.4256C4.41848 11.1737 4.41793 11.9219 4.41793 12.6705C4.41793 12.7181 4.41793 12.7662 4.41793 12.8155C4.41793 12.8636 4.41738 12.9117 4.41738 12.9609C4.41738 13.0583 4.41738 13.1556 4.41738 13.253C4.41738 13.3011 4.41738 13.3498 4.41738 13.3995C4.41738 14.1816 4.41629 14.9641 4.4152 15.7467C4.41355 16.5495 4.41301 17.3523 4.41301 18.1552C4.41301 18.6058 4.41246 19.057 4.41191 19.5076C4.41082 19.892 4.41082 20.2759 4.41082 20.6598C4.41137 20.8556 4.41137 21.0514 4.41027 21.2477C4.40973 21.4599 4.41027 21.6721 4.41082 21.8848C4.41027 21.9466 4.40973 22.009 4.40918 22.073C4.40973 22.1298 4.40973 22.1867 4.41027 22.2452C4.41027 22.2939 4.41027 22.3431 4.41027 22.3934C4.43488 22.5608 4.50434 22.6641 4.59457 22.8047C4.59457 22.8408 4.59457 22.8769 4.59457 22.9141C5.0009 23.1509 5.43895 23.1487 5.89449 23.1465C5.9902 23.147 5.9902 23.147 6.08809 23.147C6.26473 23.1476 6.44137 23.1476 6.61746 23.147C6.80832 23.147 6.99918 23.147 7.19004 23.1476C7.56301 23.1481 7.93652 23.1481 8.30949 23.1476C8.61301 23.1476 8.91652 23.1476 9.22004 23.1476C9.28457 23.1476 9.28457 23.1476 9.35074 23.1476C9.43879 23.1476 9.52629 23.1476 9.61434 23.1476C10.4374 23.1481 11.2599 23.1476 12.0829 23.147C12.7889 23.1465 13.4944 23.1465 14.2004 23.147C15.0202 23.1476 15.8405 23.1481 16.6603 23.1476C16.7478 23.1476 16.8353 23.1476 16.9228 23.1476C16.966 23.1476 17.0092 23.1476 17.0535 23.1476C17.3564 23.1476 17.6594 23.1476 17.9624 23.1476C18.3315 23.1481 18.7007 23.1481 19.0704 23.1476C19.2585 23.147 19.4466 23.147 19.6353 23.1476C19.8393 23.1476 20.0438 23.147 20.2483 23.1465C20.3074 23.147 20.367 23.147 20.4277 23.1476C20.7968 23.1454 21.2371 23.141 21.5477 22.9141C21.615 22.7921 21.615 22.7921 21.6571 22.6406C21.6762 22.5848 21.6948 22.5285 21.7145 22.4711C21.7818 22.2327 21.7807 22.0041 21.7779 21.758C21.7779 21.7088 21.7774 21.6601 21.7774 21.6092C21.7768 21.4452 21.7757 21.2811 21.7746 21.117C21.7741 20.9995 21.7736 20.8813 21.773 20.7632C21.7725 20.51 21.7714 20.2563 21.7697 20.0025C21.7681 19.6011 21.7675 19.1991 21.767 18.7977C21.767 18.7299 21.767 18.6621 21.767 18.5921C21.767 18.4532 21.7664 18.3148 21.7664 18.1759C21.7659 17.2413 21.7637 16.3067 21.7588 15.3721C21.755 14.7416 21.7533 14.1105 21.7544 13.4799C21.755 13.1463 21.7544 12.8127 21.7511 12.4797C21.7479 12.1652 21.7479 11.8513 21.7495 11.5374C21.7495 11.4226 21.7489 11.3077 21.7468 11.1934C21.7358 10.5131 21.7889 10.0663 22.2685 9.56047C22.3193 9.50961 22.3702 9.45875 22.4227 9.40625C22.5096 9.30891 22.5966 9.21102 22.6825 9.11258C22.7218 9.06992 22.7612 9.02727 22.8017 8.98352C22.9466 8.82492 23.0866 8.66195 23.2261 8.49844C23.2496 8.47328 23.2736 8.44812 23.2977 8.42188C23.3157 8.42188 23.3338 8.42188 23.3524 8.42188C23.3562 10.2309 23.3595 12.04 23.3611 13.8491C23.3611 14.0629 23.3611 14.2762 23.3617 14.49C23.3617 14.5327 23.3617 14.5753 23.3617 14.6191C23.3622 15.3076 23.3639 15.9955 23.3655 16.6841C23.3666 17.3906 23.3677 18.0972 23.3682 18.8038C23.3682 19.2396 23.3688 19.6755 23.3704 20.1113C23.3715 20.446 23.3715 20.7802 23.371 21.1148C23.371 21.2516 23.3715 21.3888 23.3721 21.5255C23.3732 21.7131 23.3726 21.9002 23.3721 22.0877C23.3726 22.1419 23.3732 22.1955 23.3737 22.2513C23.3693 22.9195 23.1364 23.5287 22.6841 24.0248C22.1055 24.5755 21.4618 24.7527 20.6782 24.7466C20.6104 24.7466 20.542 24.7472 20.472 24.7477C20.2855 24.7483 20.0985 24.7483 19.912 24.7472C19.7096 24.7466 19.5073 24.7477 19.305 24.7483C18.9096 24.7494 18.5142 24.7488 18.1193 24.7483C17.7978 24.7477 17.4762 24.7477 17.1546 24.7483C17.0857 24.7483 17.0857 24.7483 17.0157 24.7483C16.9222 24.7483 16.8293 24.7483 16.7363 24.7483C15.8635 24.7488 14.9912 24.7483 14.1184 24.7472C13.3708 24.7461 12.6232 24.7461 11.8751 24.7472C11.0056 24.7483 10.1361 24.7488 9.26652 24.7483C9.17355 24.7483 9.08113 24.7483 8.98816 24.7483C8.94223 24.7483 8.89684 24.7477 8.8498 24.7477C8.52879 24.7477 8.20777 24.7483 7.8873 24.7488C7.49574 24.7494 7.10418 24.7488 6.71316 24.7477C6.51355 24.7472 6.31395 24.7472 6.11434 24.7477C5.89777 24.7488 5.68121 24.7477 5.46465 24.7466C5.4023 24.7472 5.33996 24.7477 5.27543 24.7483C4.53441 24.7406 3.99191 24.4962 3.44613 24.0078C3.03324 23.5807 2.78387 22.9983 2.78277 22.4055C2.78277 22.3475 2.78223 22.2901 2.78223 22.2305C2.78223 22.1359 2.78223 22.1359 2.78223 22.0391C2.78223 21.9718 2.78223 21.9045 2.78168 21.8351C2.78168 21.6486 2.78113 21.4621 2.78113 21.2751C2.78113 21.0738 2.78059 20.8726 2.78059 20.6713C2.77949 20.2311 2.77949 19.7909 2.77895 19.3506C2.77895 19.0755 2.77895 18.8005 2.7784 18.5259C2.77785 17.7641 2.7773 17.0029 2.7773 16.2411C2.7773 16.1924 2.7773 16.1438 2.7773 16.0934C2.7773 16.0448 2.77676 15.9955 2.77676 15.9452C2.77676 15.8462 2.77676 15.7473 2.77676 15.6483C2.77676 15.5996 2.77676 15.5504 2.77676 15.4995C2.77676 14.7044 2.77566 13.9092 2.77457 13.1141C2.77293 12.297 2.77238 11.48 2.77238 10.6635C2.77238 10.2047 2.77184 9.74641 2.77129 9.28758C2.7702 8.89711 2.7702 8.50664 2.7702 8.11617C2.77074 7.91711 2.77074 7.71805 2.76965 7.51898C2.7691 7.30297 2.76965 7.08695 2.7702 6.87039C2.76965 6.80805 2.7691 6.7457 2.76855 6.68117C2.77293 5.94617 3.00754 5.36703 3.50793 4.82617C4.06738 4.29297 4.72965 4.13875 5.47723 4.14313Z" fill="#00C2FF"/>
<path d="M25.1396 3.36013C25.2282 3.54114 25.2364 3.65927 25.2025 3.85724C25.0991 4.14106 24.876 4.33521 24.6611 4.53919C24.6294 4.56981 24.5976 4.59989 24.5643 4.63107C24.3887 4.79732 24.2115 4.96247 24.0333 5.12599C23.8501 5.29497 23.6745 5.46997 23.5001 5.64771C23.3951 5.75052 23.2857 5.84567 23.1741 5.94083C23.038 6.05677 22.9204 6.17325 22.8088 6.31325C22.77 6.35974 22.7317 6.40567 22.6923 6.45325C22.6562 6.45325 22.6201 6.45325 22.583 6.45325C22.583 6.48935 22.583 6.52544 22.583 6.56263C22.5469 6.56263 22.5108 6.56263 22.4736 6.56263C22.4588 6.59544 22.4446 6.62825 22.4293 6.66161C22.3631 6.78411 22.2986 6.85521 22.1969 6.94872C21.9836 7.15544 21.8015 7.3813 21.6155 7.61208C21.498 7.75536 21.3755 7.89263 21.2502 8.02935C20.9735 8.33286 20.723 8.65552 20.472 8.98036C20.3982 9.07497 20.3233 9.16903 20.2483 9.2631C18.4349 11.5354 16.9425 14.0614 15.583 16.6251C15.5534 16.6815 15.5233 16.7372 15.4927 16.7947C14.9841 17.7566 14.5056 18.7317 14.0348 19.7122C13.9861 19.8134 13.9369 19.9146 13.8876 20.0158C13.8685 20.0551 13.8494 20.0945 13.8302 20.135C13.8105 20.1738 13.7914 20.2132 13.7717 20.2536C13.7542 20.2892 13.7367 20.3247 13.7187 20.3619C13.6459 20.4959 13.5901 20.5533 13.4501 20.6173C13.198 20.6829 13.0334 20.7119 12.7972 20.5872C12.603 20.4319 12.4701 20.2679 12.3258 20.0672C12.2973 20.0289 12.2694 19.9906 12.2405 19.9518C11.9976 19.6182 11.7674 19.2769 11.5366 18.9351C11.2397 18.4982 10.9165 18.0836 10.5878 17.6702C10.4905 17.5466 10.3937 17.4225 10.2974 17.2978C9.71225 16.5447 9.10413 15.8125 8.41889 15.1486C8.28491 15.0151 8.15147 14.8811 8.01913 14.7461C7.90264 14.6318 7.78507 14.5229 7.66366 14.4147C7.16436 13.9679 6.71483 13.5648 6.65577 12.8599C6.6421 12.2594 6.76897 11.7875 7.1578 11.321C7.53132 10.9568 7.99452 10.7593 8.5146 10.7533C9.32014 10.7675 9.80413 11.2187 10.3521 11.7623C10.4423 11.8673 10.4423 11.8673 10.4423 11.9767C10.4784 11.9767 10.5145 11.9767 10.5517 11.9767C10.6212 12.044 10.6212 12.044 10.7054 12.144C10.7393 12.184 10.7726 12.2233 10.8076 12.2643C10.8492 12.3141 10.8913 12.3633 10.9345 12.4142C10.9908 12.4793 11.0477 12.5438 11.1046 12.6089C11.4841 13.0425 11.8527 13.4779 12.1852 13.9493C12.2284 14.0089 12.2284 14.0089 12.2722 14.0701C12.3296 14.1494 12.3859 14.2298 12.4417 14.3108C12.6069 14.5421 12.6069 14.5421 12.8623 14.6547C12.9487 14.6558 13.0356 14.6564 13.122 14.6564C13.1368 14.6165 13.1515 14.5765 13.1669 14.535C13.2287 14.3895 13.2987 14.2692 13.3867 14.1379C13.4326 14.0685 13.4326 14.0685 13.4797 13.9979C13.513 13.9493 13.5458 13.9 13.5798 13.8497C13.6317 13.7732 13.6317 13.7732 13.6842 13.6955C13.9735 13.2662 14.2688 12.8418 14.5701 12.4208C14.627 12.3415 14.6844 12.2616 14.7413 12.1818C15.2499 11.467 15.7809 10.7752 16.3387 10.0982C16.4191 10.0003 16.4995 9.90239 16.5788 9.80341C16.8326 9.4895 17.0962 9.18708 17.3696 8.88958C17.4762 8.77255 17.5812 8.65442 17.6851 8.53466C17.7497 8.46083 17.8148 8.387 17.8798 8.31263C17.917 8.27052 17.9542 8.22786 17.993 8.18411C18.3556 7.77997 18.7373 7.39497 19.1207 7.01052C19.1612 6.9695 19.1612 6.9695 19.2027 6.92794C19.5177 6.61185 19.8371 6.30505 20.1767 6.01575C20.2347 5.96489 20.2926 5.91349 20.3506 5.86208C21.3197 5.00896 22.3839 4.26903 23.523 3.66091C23.5597 3.64122 23.5963 3.62153 23.634 3.6013C24.0912 3.36396 24.6376 3.09763 25.1396 3.36013Z" fill="#00C2FF"/>
</svg>
