<svg width="18" height="18" viewBox="0 0 18 18" fill="none" xmlns="http://www.w3.org/2000/svg">
<path fill-rule="evenodd" clip-rule="evenodd" d="M1.6 1.6H16V16H1.6V1.6ZM0 1.6C0 0.716336 0.716352 0 1.6 0H16C16.8837 0 17.6 0.716352 17.6 1.6V16C17.6 16.8837 16.8837 17.6 16 17.6H1.6C0.716336 17.6 0 16.8837 0 16V1.6ZM13.3597 5.61768C13.6096 5.25339 13.517 4.75539 13.1526 4.50539C12.7884 4.25538 12.2904 4.34802 12.0404 4.7123L7.42477 11.4377L5.11573 8.65422C4.83363 8.31416 4.32928 8.26718 3.98923 8.54926C3.64917 8.83136 3.60219 9.33571 3.88427 9.67576L6.86944 13.2742C7.02957 13.4674 7.27099 13.5741 7.52155 13.5627C7.77211 13.5512 8.00283 13.423 8.14475 13.2162L13.3597 5.61768Z" fill="#00C2FF"/>
</svg>
