<svg width="17" height="17" viewBox="0 0 17 17" fill="none" xmlns="http://www.w3.org/2000/svg">
<path fill-rule="evenodd" clip-rule="evenodd" d="M15.9992 9.33644C16.0268 9.25482 16.0304 9.16745 16.0085 9.08407C15.4859 7.11006 5.78466 1.49874 2.7362 0.555304C1.94204 0.309443 1.3666 0.408446 1.02876 0.848698C0.0495246 2.12294 2.0718 6.08525 3.25202 8.15712L9.3661 8.37355C9.72038 8.38606 9.99753 8.68648 9.98515 9.04461C9.97278 9.40273 9.67558 9.68288 9.3213 9.67038L3.1486 9.45126C1.82009 11.4615 -0.386841 15.1748 0.488281 16.4937C0.521074 16.5432 0.556995 16.5897 0.596088 16.6321C0.919328 16.9825 1.44882 17.0746 2.17073 16.9061C5.275 16.1817 15.3403 11.2712 15.9992 9.33644Z" fill="white"/>
</svg>
